<svg width="518" height="658" viewBox="0 0 518 658" fill="none" xmlns="http://www.w3.org/2000/svg">
<path d="M364 0C309.511 0 255.716 11.0571 206.586 32.3557C157.455 53.6542 114.242 84.6508 80.1332 123.059C46.0249 161.466 21.892 206.306 9.51485 254.268C-2.86231 302.231 -3.16793 352.093 8.62054 400.177C20.409 448.261 43.9908 493.339 77.6262 532.086C111.262 570.833 154.092 602.261 202.959 624.05C251.826 645.839 305.481 657.434 359.967 657.98C414.453 658.525 468.38 648.008 517.768 627.202L513.52 618.964C465.496 639.194 413.059 649.422 360.079 648.891C307.098 648.36 254.925 637.086 207.408 615.898C159.892 594.711 118.244 564.152 85.5378 526.475C52.8317 488.799 29.9014 444.966 18.4386 398.211C6.97584 351.455 7.27301 302.971 19.3082 256.333C31.3434 209.695 54.8096 166.095 87.9756 128.748C121.142 91.4014 163.161 61.2612 210.934 40.5511C258.708 19.8409 311.016 9.08929 364 9.08929V0Z" fill="#D9D9D9"/>
</svg>
