<svg width="575" height="655" viewBox="0 0 575 655" fill="none" xmlns="http://www.w3.org/2000/svg">
<path d="M0.102467 594.152C45.0906 623.057 96.7626 642.336 151.21 650.531C205.657 658.726 261.452 655.622 314.376 641.453C367.3 627.284 415.966 602.423 456.692 568.748C497.418 535.074 529.138 493.47 549.452 447.082C569.766 400.694 578.142 350.738 573.947 300.993C569.752 251.248 553.094 203.017 525.236 159.948C497.377 116.879 459.046 80.1013 413.144 52.3958C367.241 24.6903 314.968 6.78311 260.279 0.0289709L258.918 9.03458C312.095 15.6021 362.924 33.0146 407.559 59.9546C452.194 86.8947 489.465 122.657 516.554 164.536C543.643 206.415 559.84 253.313 563.92 301.684C567.999 350.055 559.855 398.63 540.102 443.737C520.349 488.843 489.506 529.298 449.904 562.042C410.303 594.786 362.982 618.961 311.52 632.738C260.059 646.515 205.804 649.534 152.861 641.565C99.9187 633.597 49.6742 614.85 5.92894 586.744L0.102467 594.152Z" fill="#D9D9D9"/>
</svg>
