<svg width="873" height="35" viewBox="0 0 873 35" fill="none" xmlns="http://www.w3.org/2000/svg">
<path d="M0 13C0 17.9706 4.02944 22 9 22H74.3803C79.3509 22 83.3803 17.9706 83.3803 13H0Z" fill="black" fill-opacity="0.42"/>
<path d="M83.3784 13C83.3784 8.02944 87.4079 4 92.3784 4H173.83C178.8 4 182.83 8.02944 182.83 13H83.3784Z" fill="black" fill-opacity="0.42"/>
<path d="M579.641 13C579.641 17.9706 583.67 22 588.641 22H670.092C675.063 22 679.092 17.9706 679.092 13H579.641Z" fill="black" fill-opacity="0.42"/>
<path d="M678.098 13C678.098 8.02944 682.127 4 687.098 4H768.549C773.52 4 777.549 8.02944 777.549 13H678.098Z" fill="black" fill-opacity="0.42"/>
<path d="M777.548 13C777.548 17.9706 781.578 22 786.548 22H868C872.97 22 877 17.9706 877 13H777.548Z" fill="black" fill-opacity="0.42"/>
<path d="M182.829 13C182.829 17.9706 186.859 22 191.829 22H273.28C278.251 22 282.28 17.9706 282.28 13H182.829Z" fill="black" fill-opacity="0.42"/>
<path d="M375.695 24C375.148 24 374.875 23.707 374.875 23.1211V8.07422C374.875 7.48828 375.148 7.19531 375.695 7.19531H377.594C378.062 7.19531 378.297 7.48828 378.297 8.07422V21.0938H385.129C385.715 21.0938 386.008 21.3477 386.008 21.8555V23.2383C386.008 23.7461 385.715 24 385.129 24H375.695ZM387.555 17.8477C387.555 15.8711 388.047 14.3125 389.031 13.1719C390.023 12.0312 391.422 11.4609 393.227 11.4609C395.32 11.4609 396.875 12 397.891 13.0781C398.906 14.1562 399.414 15.8906 399.414 18.2812C399.414 18.75 399.195 18.9844 398.758 18.9844H391.023C391.148 20.2812 391.469 21.0977 391.984 21.4336C392.5 21.7695 393.098 21.9375 393.777 21.9375C394.426 21.9375 394.922 21.8516 395.266 21.6797C395.609 21.5078 395.898 21.2734 396.133 20.9766C396.398 20.6328 396.727 20.5781 397.117 20.8125L398.289 21.5273C398.75 21.8086 398.816 22.1445 398.488 22.5352C398.012 23.1055 397.453 23.5312 396.812 23.8125C396.172 24.0938 395.16 24.2344 393.777 24.2344C391.535 24.2344 389.938 23.6641 388.984 22.5234C388.031 21.3828 387.555 19.8242 387.555 17.8477ZM391.035 16.6406H396.133C396.133 15.7969 395.922 15.1094 395.5 14.5781C395.078 14.0391 394.406 13.7695 393.484 13.7695C392.75 13.7695 392.168 14.0273 391.738 14.543C391.309 15.0508 391.074 15.75 391.035 16.6406ZM401.16 12.6094C400.965 12 401.094 11.6953 401.547 11.6953H403.645C404.012 11.6953 404.246 11.8945 404.348 12.293L406.164 19.1602C406.266 19.543 406.348 19.9219 406.41 20.2969C406.48 20.6719 406.523 20.9766 406.539 21.2109H406.609C406.625 20.9766 406.664 20.6719 406.727 20.2969C406.797 19.9219 406.883 19.543 406.984 19.1602L408.801 12.293C408.902 11.8945 409.137 11.6953 409.504 11.6953H411.602C412.055 11.6953 412.184 12 411.988 12.6094L408.59 23.2148C408.426 23.7383 408.141 24 407.734 24H405.414C405.008 24 404.723 23.7383 404.559 23.2148L401.16 12.6094ZM413.125 17.8477C413.125 15.8711 413.617 14.3125 414.602 13.1719C415.594 12.0312 416.992 11.4609 418.797 11.4609C420.891 11.4609 422.445 12 423.461 13.0781C424.477 14.1562 424.984 15.8906 424.984 18.2812C424.984 18.75 424.766 18.9844 424.328 18.9844H416.594C416.719 20.2812 417.039 21.0977 417.555 21.4336C418.07 21.7695 418.668 21.9375 419.348 21.9375C419.996 21.9375 420.492 21.8516 420.836 21.6797C421.18 21.5078 421.469 21.2734 421.703 20.9766C421.969 20.6328 422.297 20.5781 422.688 20.8125L423.859 21.5273C424.32 21.8086 424.387 22.1445 424.059 22.5352C423.582 23.1055 423.023 23.5312 422.383 23.8125C421.742 24.0938 420.73 24.2344 419.348 24.2344C417.105 24.2344 415.508 23.6641 414.555 22.5234C413.602 21.3828 413.125 19.8242 413.125 17.8477ZM416.605 16.6406H421.703C421.703 15.7969 421.492 15.1094 421.07 14.5781C420.648 14.0391 419.977 13.7695 419.055 13.7695C418.32 13.7695 417.738 14.0273 417.309 14.543C416.879 15.0508 416.645 15.75 416.605 16.6406ZM428.242 24C427.773 24 427.539 23.7656 427.539 23.2969V9.45703C427.539 9.10547 427.621 8.78516 427.785 8.49609L428.688 6.91406C428.859 6.61719 429.062 6.46875 429.297 6.46875H430.117C430.586 6.46875 430.82 6.70312 430.82 7.17188V23.2969C430.82 23.7656 430.586 24 430.117 24H428.242ZM442.492 17.0039V7.83984C442.492 7.41016 442.766 7.19531 443.312 7.19531H445.094C445.641 7.19531 445.914 7.41016 445.914 7.83984V16.8867C445.914 18.9961 446.223 20.3164 446.84 20.8477C447.465 21.3711 448.168 21.6328 448.949 21.6328C449.73 21.6328 450.43 21.3711 451.047 20.8477C451.672 20.3164 451.984 18.9961 451.984 16.8867V7.83984C451.984 7.41016 452.258 7.19531 452.805 7.19531H454.586C455.133 7.19531 455.406 7.41016 455.406 7.83984V17.0039C455.406 19.7383 454.828 21.6562 453.672 22.7578C452.516 23.8516 450.941 24.3984 448.949 24.3984C446.957 24.3984 445.383 23.8516 444.227 22.7578C443.07 21.6562 442.492 19.7383 442.492 17.0039ZM459.578 28.6875C459.109 28.6875 458.875 28.4531 458.875 27.9844V12.3984C458.875 11.9297 459.109 11.6953 459.578 11.6953H461.43C461.82 11.6953 462.031 11.9297 462.062 12.3984L462.109 13.0781H462.156C462.562 12.4062 463.016 11.9688 463.516 11.7656C464.016 11.5625 464.617 11.4609 465.32 11.4609C467.156 11.4609 468.445 12.0977 469.188 13.3711C469.938 14.6367 470.312 16.1289 470.312 17.8477C470.312 19.5664 469.938 21.0625 469.188 22.3359C468.445 23.6016 467.156 24.2344 465.32 24.2344C464.617 24.2344 464.016 24.1328 463.516 23.9297C463.016 23.7266 462.562 23.2891 462.156 22.6172H462.109C462.141 22.9297 462.156 23.2422 462.156 23.5547V27.9844C462.156 28.4531 461.922 28.6875 461.453 28.6875H459.578ZM462.156 18.375C462.156 19.4297 462.363 20.2891 462.777 20.9531C463.199 21.6094 463.703 21.9375 464.289 21.9375C465.344 21.9375 466.031 21.5703 466.352 20.8359C466.68 20.0938 466.844 19.0977 466.844 17.8477C466.844 16.5977 466.68 15.6055 466.352 14.8711C466.031 14.1289 465.344 13.7578 464.289 13.7578C463.703 13.7578 463.199 14.0898 462.777 14.7539C462.363 15.4102 462.156 16.2656 462.156 17.3203V18.375Z" fill="black" fill-opacity="0.42"/>
</svg>
